<?xml version="1.0" encoding="UTF-8" standalone="no"?>
<svg width="50px" height="50px" viewBox="0 0 50 50" version="1.1" xmlns="http://www.w3.org/2000/svg" xmlns:xlink="http://www.w3.org/1999/xlink" xmlns:sketch="http://www.bohemiancoding.com/sketch/ns">
    <!-- Generator: Sketch 3.4.4 (17249) - http://www.bohemiancoding.com/sketch -->
    <title>logo</title>
    <desc>Created with Sketch.</desc>
    <defs></defs>
    <g id="Page-1" stroke="none" stroke-width="1" fill="none" fill-rule="evenodd" sketch:type="MSPage">
        <g id="logo" sketch:type="MSLayerGroup" fill="#1D1D1B">
            <path d="M33.7632075,9.84787736 C30.6014151,9.84787736 28.0391509,12.4113208 28.0391509,15.5726415 C28.0391509,18.7334906 30.6011792,21.2962264 33.7632075,21.2962264 C36.9254717,21.2962264 39.4875,18.7337264 39.4875,15.5726415 C39.4877358,12.4113208 36.9254717,9.84787736 33.7632075,9.84787736 L33.7632075,9.84787736 Z" id="Shape" sketch:type="MSShapeGroup"></path>
            <path d="M5.21084906,0.0634433962 L5.18962264,0.0851415094 L0.0419811321,0.0851415094 L0.0419811321,5.23254717 L0.0198113208,5.25400943 L0.0419811321,5.27523585 L0.0419811321,49.9811321 L49.9379717,49.9811321 L49.9379717,0.0849056604 L5.23254717,0.0849056604 L5.21084906,0.0634433962 L5.21084906,0.0634433962 Z M42.5964623,7.42665094 L42.5964623,37.4483491 L12.5740566,7.42665094 L42.5964623,7.42665094 L42.5964623,7.42665094 Z M7.38372642,12.617217 L22.8926887,28.1261792 L7.38372642,28.1261792 L7.38372642,12.617217 L7.38372642,12.617217 Z M7.38372642,35.4679245 L30.234434,35.4679245 L37.4056604,42.6396226 L7.38372642,42.6396226 L7.38372642,35.4679245 L7.38372642,35.4679245 Z" id="Shape" sketch:type="MSShapeGroup"></path>
        </g>
    </g>
</svg>